<svg xmlns="http://www.w3.org/2000/svg" width="17.179" height="19.646" viewBox="0 0 17.179 19.646">
  <g id="Attach" transform="translate(-2.809 -2.022)">
    <path id="Vector" d="M15.271,10.4l-6.18,6.19a4.25,4.25,0,0,1-6-6l8-8a2.57,2.57,0,0,1,3.54,0,2.52,2.52,0,0,1,0,3.54l-6.9,6.89a.764.764,0,1,1-1.12-1.04l5.13-5.12a1,1,0,1,0-1.42-1.42l-5.13,5.14a2.74,2.74,0,0,0,0,3.89,2.82,2.82,0,0,0,3.89,0l6.89-6.9a4.5,4.5,0,0,0-6.36-6.36l-8,8a6.25,6.25,0,0,0,8.89,8.77l6.19-6.18a1,1,0,0,0-1.42-1.42Z" transform="translate(2.809 2.022)" fill="#fafafa"/>
  </g>
</svg>
