<svg xmlns="http://www.w3.org/2000/svg" xmlns:xlink="http://www.w3.org/1999/xlink" width="208.729" height="71.869" viewBox="0 0 208.729 71.869">
  <defs>
    <linearGradient id="linear-gradient" x1="119.649" y1="14.525" x2="119.759" y2="14.525" gradientUnits="objectBoundingBox">
      <stop offset="0"/>
      <stop offset="1" stop-opacity="0"/>
    </linearGradient>
    <linearGradient id="linear-gradient-2" x1="131.324" y1="11.966" x2="131.324" y2="11.846" gradientUnits="objectBoundingBox">
      <stop offset="0" stop-color="#262626"/>
      <stop offset="1" stop-color="#262626" stop-opacity="0"/>
    </linearGradient>
    <linearGradient id="linear-gradient-3" x1="270.938" y1="18.214" x2="270.938" y2="18.541" gradientUnits="objectBoundingBox">
      <stop offset="0" stop-color="#ab0000"/>
      <stop offset="1" stop-color="#ab0000" stop-opacity="0"/>
    </linearGradient>
    <radialGradient id="radial-gradient" cx="0.405" cy="0.333" r="1.296" gradientTransform="matrix(1, 0, 0, -1, -0.001, 6.123)" gradientUnits="objectBoundingBox">
      <stop offset="0.03" stop-color="#fff"/>
      <stop offset="0.302" stop-color="#f72525"/>
      <stop offset="0.985" stop-color="#c71b23"/>
    </radialGradient>
  </defs>
  <g id="Group_110" data-name="Group 110" transform="translate(-1022 -39.275)">
    <g id="Group_92-2" data-name="Group 92-2" transform="translate(1022 60.241)">
      <path id="Path_87" data-name="Path 87" d="M299.73,238a10.412,10.412,0,0,1-3.639-.591,6.355,6.355,0,0,1-2.582-1.7,5.7,5.7,0,0,1-1.32-2.746,7.278,7.278,0,0,1-.148-1.491,10.548,10.548,0,0,1,.262-2.247,11.172,11.172,0,0,1,2.2-4.705h-1.2l.853-4.032h9.3a10.493,10.493,0,0,1,3.632.581,6.162,6.162,0,0,1,2.566,1.705,5.837,5.837,0,0,1,1.312,2.746,7.356,7.356,0,0,1,.147,1.508,10.648,10.648,0,0,1-.246,2.2,11.332,11.332,0,0,1-1.475,3.738,10.354,10.354,0,0,1-2.484,2.746,10.84,10.84,0,0,1-3.287,1.7A12.624,12.624,0,0,1,299.73,238Zm.853-4.034a5.4,5.4,0,0,0,1.952-.352,5.607,5.607,0,0,0,1.639-.965,5.679,5.679,0,0,0,1.229-1.492,6.313,6.313,0,0,0,.724-1.926,6.2,6.2,0,0,0,.147-1.3,3.411,3.411,0,0,0-.639-2.131,3.577,3.577,0,0,0-3.05-1.278,5.442,5.442,0,0,0-3.566,1.319,6.275,6.275,0,0,0-1.254,1.491,5.894,5.894,0,0,0-.737,1.894,5.486,5.486,0,0,0-.131,1.164,4.241,4.241,0,0,0,.066.755,3.324,3.324,0,0,0,.623,1.491,3.218,3.218,0,0,0,1.238.976,4.157,4.157,0,0,0,1.758.352Z" transform="translate(-292.041 -214.436)" fill="#363636"/>
      <path id="Path_88" data-name="Path 88" d="M313.772,207.615a2.069,2.069,0,0,1-1.475-.508,1.482,1.482,0,0,1-.46-1.082,2.059,2.059,0,0,1,.049-.426,2.3,2.3,0,0,1,1.025-1.491,3.109,3.109,0,0,1,1.714-.525,2.171,2.171,0,0,1,1.492.508,1.367,1.367,0,0,1,.459,1.066,2.108,2.108,0,0,1-.049.443,2.443,2.443,0,0,1-1.046,1.508A3.191,3.191,0,0,1,313.772,207.615Z" transform="translate(-304.753 -203.58)" fill="#df2024"/>
      <path id="Path_89" data-name="Path 89" d="M329.429,207.616a2.569,2.569,0,0,1-.829-.131,1.705,1.705,0,0,1-.643-.385,1.44,1.44,0,0,1-.377-.631,1.389,1.389,0,0,1-.065-.443,2,2,0,0,1,.049-.426,2.245,2.245,0,0,1,1.033-1.508,3.063,3.063,0,0,1,1.689-.508,2.17,2.17,0,0,1,1.492.508,1.308,1.308,0,0,1,.476,1.033,1.963,1.963,0,0,1-.066.476,2.15,2.15,0,0,1-.377.87,2.6,2.6,0,0,1-.664.631,3.05,3.05,0,0,1-.836.385A3.157,3.157,0,0,1,329.429,207.616Z" transform="translate(-314.821 -203.582)" fill="#df2024"/>
      <path id="Path_90" data-name="Path 90" d="M341.8,251.616l.853-4.033a3.7,3.7,0,0,0,2.508-.893,4.574,4.574,0,0,0,1.394-2.615l1.918-9.05h-1.623l.688-3.263h6.328l-2.59,12.227a10.564,10.564,0,0,1-1.164,3.049,8.883,8.883,0,0,1-2.025,2.413,9.186,9.186,0,0,1-2.8,1.582A10.562,10.562,0,0,1,341.8,251.616Z" transform="translate(-323.996 -221.677)" fill="#363636"/>
      <path id="Path_91" data-name="Path 91" d="M395.236,237.507a10.224,10.224,0,0,1-.965,2.28,8.817,8.817,0,0,1-2.033,2.413,9.1,9.1,0,0,1-2.819,1.59,10.528,10.528,0,0,1-3.476.574l.885-4.114a3.645,3.645,0,0,0,2.508-.9,4.254,4.254,0,0,0,1.3-2.23q-.41.165-.852.311a12.463,12.463,0,0,1-3.869.591,10.464,10.464,0,0,1-3.656-.591,6.4,6.4,0,0,1-2.574-1.7,5.8,5.8,0,0,1-1.328-2.735,9.3,9.3,0,0,1,.115-3.738,11.579,11.579,0,0,1,1.459-3.689,10.365,10.365,0,0,1,2.508-2.735,10.639,10.639,0,0,1,3.3-1.722,12.666,12.666,0,0,1,3.9-.589,10.544,10.544,0,0,1,3.62.573,6.186,6.186,0,0,1,2.574,1.722,5.874,5.874,0,0,1,1.3,2.735,8.944,8.944,0,0,1-.1,3.705l-.262,1.23a3.2,3.2,0,0,0,.3,2.607,2.412,2.412,0,0,0,2.115.9,1.57,1.57,0,0,1,1.3.59,1.633,1.633,0,0,1,.286,1.426,2.5,2.5,0,0,1-.894,1.426,2.382,2.382,0,0,1-1.549.592h-.05A8.57,8.57,0,0,1,395.236,237.507Zm-8.477-3.539a5.537,5.537,0,0,0,1.943-.344,5.237,5.237,0,0,0,1.64-.965,5.945,5.945,0,0,0,1.221-1.491,6.546,6.546,0,0,0,.738-1.918,5.707,5.707,0,0,0,.148-1.246,3.475,3.475,0,0,0-.656-2.181,3.557,3.557,0,0,0-3.033-1.278,5.473,5.473,0,0,0-1.931.344,5.368,5.368,0,0,0-1.655.975,6.122,6.122,0,0,0-1.246,1.492,6.028,6.028,0,0,0-.73,1.894,5.434,5.434,0,0,0-.147,1.213,3.783,3.783,0,0,0,.065.7,3.333,3.333,0,0,0,.623,1.491,3.16,3.16,0,0,0,1.238.965,4.291,4.291,0,0,0,1.782.344Z" transform="translate(-347.378 -214.454)" fill="#363636"/>
      <path id="Path_92" data-name="Path 92" d="M440.312,239.784a8.946,8.946,0,0,1-2.508,1.3,11.04,11.04,0,0,1-3.41.508l.852-4.032a3.78,3.78,0,0,0,2.494-.885,4.887,4.887,0,0,0,1.459-2.82l1.656-7.723h6.606l-.852,4.033h-1.935l-.835,3.918a3.2,3.2,0,0,0,.3,2.607,2.413,2.413,0,0,0,2.115.9,1.569,1.569,0,0,1,1.3.59,1.631,1.631,0,0,1,.287,1.425,2.493,2.493,0,0,1-.9,1.426,2.332,2.332,0,0,1-1.528.591h-.1a8.665,8.665,0,0,1-3.148-.574A5.411,5.411,0,0,1,440.312,239.784Z" transform="translate(-383.454 -218.059)" fill="#363636"/>
      <path id="Path_93" data-name="Path 93" d="M448.821,213.252a2.532,2.532,0,0,1-.828-.132,1.686,1.686,0,0,1-.648-.385,1.44,1.44,0,0,1-.377-.648,1.386,1.386,0,0,1-.065-.443,2.051,2.051,0,0,1,.049-.426,2.24,2.24,0,0,1,1.033-1.491,2.908,2.908,0,0,1,1.689-.508,2.74,2.74,0,0,1,.82.123,1.77,1.77,0,0,1,.672.377,1.387,1.387,0,0,1,.393.631,1.4,1.4,0,0,1,.065.443,2.055,2.055,0,0,1-.049.426,2.285,2.285,0,0,1-1.046,1.508A3.015,3.015,0,0,1,448.821,213.252Z" transform="translate(-391.487 -207.201)" fill="#df2024"/>
      <path id="Path_94" data-name="Path 94" d="M464.442,213.247a2.465,2.465,0,0,1-.819-.132,1.776,1.776,0,0,1-.648-.385,1.41,1.41,0,0,1-.385-.648,1.394,1.394,0,0,1-.065-.443,2.053,2.053,0,0,1,.049-.426,2.4,2.4,0,0,1,1.033-1.491,2.933,2.933,0,0,1,1.705-.508,2.071,2.071,0,0,1,1.475.508,1.308,1.308,0,0,1,.476,1.033,1.8,1.8,0,0,1-.065.459,2.157,2.157,0,0,1-.377.868,2.719,2.719,0,0,1-.664.64,2.9,2.9,0,0,1-.837.393A3.126,3.126,0,0,1,464.442,213.247Z" transform="translate(-401.519 -207.196)" fill="#df2024"/>
      <path id="Path_95" data-name="Path 95" d="M499.139,233.973a1.569,1.569,0,0,1,1.3.59,1.634,1.634,0,0,1,.286,1.426,2.506,2.506,0,0,1-.894,1.426,2.381,2.381,0,0,1-1.549.59,8.206,8.206,0,0,1-3.23-.574,5.163,5.163,0,0,1-1.836-1.229,8.836,8.836,0,0,1-2.541,1.294,10.887,10.887,0,0,1-3.394.508,9.813,9.813,0,0,1-3.23-.475,4.94,4.94,0,0,1-1.984-1.279A8.916,8.916,0,0,1,479.6,237.5a10.885,10.885,0,0,1-3.394.508,9.814,9.814,0,0,1-3.23-.475,4.9,4.9,0,0,1-2.017-1.311,9.227,9.227,0,0,1-2.361,1.213,9.943,9.943,0,0,1-3.459.574l.853-4.032a3.748,3.748,0,0,0,2.525-.885,4.746,4.746,0,0,0,1.394-2.623l2.1-9.935h6.706l-.853,4.033h-2.036l-1.2,5.672a3.456,3.456,0,0,0,.262,2.853,2.574,2.574,0,0,0,2.165.885,3.785,3.785,0,0,0,2.494-.885,4.839,4.839,0,0,0,1.475-2.82l2.066-9.738h6.706l-.853,4.033h-2.033l-1.2,5.672a3.457,3.457,0,0,0,.262,2.853,2.543,2.543,0,0,0,2.164.885,3.78,3.78,0,0,0,2.494-.885,4.843,4.843,0,0,0,1.475-2.82l2.065-9.738h6.608l-.853,4.034h-1.931l-1.246,5.9a3.212,3.212,0,0,0,.279,2.623A2.434,2.434,0,0,0,499.139,233.973Z" transform="translate(-403.195 -214.465)" fill="#363636"/>
      <path id="Path_96" data-name="Path 96" d="M562.5,230.458l.262-1.23a11.158,11.158,0,0,1,1.475-3.672,10.359,10.359,0,0,1,2.493-2.754,11.359,11.359,0,0,1,3.312-1.722,12.619,12.619,0,0,1,3.885-.59,10.286,10.286,0,0,1,3.62.59,5.928,5.928,0,0,1,2.574,1.705,5.994,5.994,0,0,1,1.311,2.735,9.142,9.142,0,0,1-.115,3.705,11.564,11.564,0,0,1-1.459,3.738,10.407,10.407,0,0,1-2.494,2.754,10.8,10.8,0,0,1-3.3,1.689A12.474,12.474,0,0,1,570.2,238a10.424,10.424,0,0,1-3.64-.591,6.306,6.306,0,0,1-2.494-1.59l-.017.017a9.329,9.329,0,0,1-2.836,1.59,10.487,10.487,0,0,1-3.459.575l.853-4.034a3.684,3.684,0,0,0,2.508-.9A4.584,4.584,0,0,0,562.5,230.458Zm8.558,3.492a5.5,5.5,0,0,0,1.951-.344,5.353,5.353,0,0,0,1.639-.965,5.845,5.845,0,0,0,1.23-1.491,6.223,6.223,0,0,0,.724-1.918,5.97,5.97,0,0,0,.148-1.279,4.5,4.5,0,0,0-.049-.673,3.382,3.382,0,0,0-.6-1.475,2.964,2.964,0,0,0-1.229-.943,4.562,4.562,0,0,0-1.812-.336,5.418,5.418,0,0,0-1.918.344,5.319,5.319,0,0,0-1.649.983,6.508,6.508,0,0,0-1.254,1.492,5.813,5.813,0,0,0-.738,1.886,5.525,5.525,0,0,0-.131,1.164,3.59,3.59,0,0,0,.689,2.246,3.533,3.533,0,0,0,3,1.31Z" transform="translate(-462.669 -214.438)" fill="#363636"/>
    </g>
    <g id="Group_94" data-name="Group 94" transform="translate(1144.053 39.275)">
      <path id="Path_97" data-name="Path 97" d="M769.069,280.01c3.721-.643,3.848-6.331-3.344-7.052,11.9-.7,10.553,13.587.47,8.886a55.06,55.06,0,0,1-10.693-8.776,10.056,10.056,0,0,1,.314-2.507C759,275.638,764.768,280.781,769.069,280.01Z" transform="translate(-712.812 -225.379)" fill-rule="evenodd" fill="url(#linear-gradient)"/>
      <path id="Path_98" data-name="Path 98" d="M783.294,276.818c14.7-1.394,19.22,7.052,14.353,14.573a42.328,42.328,0,0,1-13.881-5.69C793.847,290.4,795.2,276.11,783.294,276.818Z" transform="translate(-730.381 -229.239)" fill-rule="evenodd" fill="url(#linear-gradient-2)"/>
      <path id="Path_99" data-name="Path 99" d="M801.067,203.55c8.7,5.814,6.361,11.377,1.462,11a12.1,12.1,0,0,1-2.968-3.149C804.916,214.394,808.4,209.786,801.067,203.55Z" transform="translate(-740.665 -183.017)" fill-rule="evenodd" fill="url(#linear-gradient-3)"/>
      <g id="Group_93" data-name="Group 93" transform="translate(0 15.218)">
        <path id="Path_100" data-name="Path 100" d="M686.048,269.8s-14.809-23.738-38.11-32.662l-8.493,6.316s11.722-.156,33.711,15.95C677.122,262.3,681.422,265.737,686.048,269.8Z" transform="translate(-639.445 -219.467)" fill="#b3b3b3"/>
        <path id="Path_101" data-name="Path 101" d="M676.75,280.169s-16.769-10.667-25.261-12.848l-4.355,3.484A107.47,107.47,0,0,1,676.75,280.169Z" transform="translate(-644.305 -238.549)" fill="#b3b3b3"/>
        <path id="Path_102" data-name="Path 102" d="M663.215,189.1q2.247,1.881,4.382,4.008l-6.928,5.164c9.8,3.92,28.746,34.19,28.746,34.19-23.737-27.657-44.644-30.706-44.644-30.706Z" transform="translate(-642.812 -189.102)" fill="#b3b3b3"/>
      </g>
      <path id="Path_103" data-name="Path 103" d="M750.417,271.722l.064.066.015.014-.077-.088Z" transform="translate(-709.597 -226.108)" fill="#009245"/>
      <path id="Path_104" data-name="Path 104" d="M721.269,195.331c-2.12.125-3.832-.156-4.507-1.833-.472-1.129,1.193-2.743.909-3.934-.141-.627-1.382-.345-1.726-1.176-.189-.486.612-.987.486-1.489-.11-.517-.942-.643-1.067-1.158-.236-.957,1.02-1.442.627-2.367-.5-1.191-4.569-.863-3.659-2.428,1.445-2.445,5.386-6.958,4.3-8.729-.722-1.206-2.214-1.222-3.345-2.742a4.41,4.41,0,0,0,2.827.768,21.065,21.065,0,0,1,1.445-8.447,23.435,23.435,0,0,1-4.365-6.609,29.771,29.771,0,0,1-1.309-4.251c-.046-.188-.087-.372-.128-.557-.021-.1-.044-.2-.065-.293-.041-.193-.076-.383-.111-.571-.015-.083-.033-.166-.047-.248-.035-.2-.063-.39-.09-.579-.01-.068-.021-.137-.031-.2-.033-.248-.06-.5-.083-.728h-15.19a12.936,12.936,0,0,0-9.128,3.761,13.066,13.066,0,0,0-1.839,2.285l2.372,2.413,9.653,9.819-.026.04,1.642,1.6a2.031,2.031,0,0,1-.486,3.208l-2.111,1.14a2.167,2.167,0,0,0-.88,2.936c.027.051.057.1.088.148,2.612,4.04,8.788,13.276,13.744,18.258v-.009l.077.088a2.418,2.418,0,0,0,1.451.875,2.381,2.381,0,0,1-1.451-.875,55.682,55.682,0,0,0,12.486,10.772C731.819,208.913,733.169,194.622,721.269,195.331Z" transform="translate(-668.353 -147.748)" fill="#363636" fill-rule="evenodd"/>
      <path id="Path_105" data-name="Path 105" d="M751.311,158.142a13,13,0,0,0-12.725-10.412h-27.3c-.579,8.786,7.911,16.455,14.007,20.533,10.537,7.036,4.869,13.711-1.9,9.923,2.921,4.465,8.134,6.3,13.4,6.017,4.9,6.44,5.072,16.971-.753,22.895a26.906,26.906,0,0,0,6.615-.568,11,11,0,0,1-1.918,3.208,17.68,17.68,0,0,1-13.84,6.593h-34.21a9.714,9.714,0,0,1-9.714-9.714h0v-3.241l-3.266-.6v3.839A12.982,12.982,0,0,0,692.686,219.6h45.9a12.993,12.993,0,0,0,12.981-12.981v-45.9A13.008,13.008,0,0,0,751.311,158.142Z" transform="translate(-664.895 -147.73)" fill="url(#radial-gradient)"/>
    </g>
  </g>
</svg>
